# Blender v2.92.0 OBJ File: ''
# www.blender.org
o Plane
v -3.482803 0.040754 3.510274
v 3.326424 0.040754 3.510274
v -3.482803 0.040754 -3.298953
v 3.326424 0.040754 -3.298953
vn 0.0000 1.0000 0.0000
s off
f 2//1 3//1 1//1
f 2//1 4//1 3//1
o Cube_Cube.001
v -1.163222 0.040754 -0.071394
v -1.163222 0.948479 -0.071394
v -1.163222 0.040754 -0.979118
v -1.163222 0.948479 -0.979118
v -0.255497 0.040754 -0.071394
v -0.255497 0.948479 -0.071394
v -0.255497 0.040754 -0.979118
v -0.255497 0.948479 -0.979118
vn -1.0000 0.0000 0.0000
vn 0.0000 0.0000 -1.0000
vn 1.0000 0.0000 0.0000
vn 0.0000 0.0000 1.0000
vn 0.0000 -1.0000 0.0000
vn 0.0000 1.0000 0.0000
s off
f 6//2 7//2 5//2
f 8//3 11//3 7//3
f 12//4 9//4 11//4
f 10//5 5//5 9//5
f 11//6 5//6 7//6
f 8//7 10//7 12//7
f 6//2 8//2 7//2
f 8//3 12//3 11//3
f 12//4 10//4 9//4
f 10//5 6//5 5//5
f 11//6 9//6 5//6
f 8//7 6//7 10//7
o Cube.001_Cube.002
v 0.647495 0.040754 2.349562
v 0.647495 0.633760 2.349562
v 0.647495 0.040754 1.756556
v 0.647495 0.633760 1.756556
v 1.240501 0.040754 2.349562
v 1.240501 0.633760 2.349562
v 1.240501 0.040754 1.756556
v 1.240501 0.633760 1.756556
vn -1.0000 0.0000 0.0000
vn 0.0000 0.0000 -1.0000
vn 1.0000 0.0000 0.0000
vn 0.0000 0.0000 1.0000
vn 0.0000 -1.0000 0.0000
vn 0.0000 1.0000 0.0000
s off
f 14//8 15//8 13//8
f 16//9 19//9 15//9
f 20//10 17//10 19//10
f 18//11 13//11 17//11
f 19//12 13//12 15//12
f 16//13 18//13 20//13
f 14//8 16//8 15//8
f 16//9 20//9 19//9
f 20//10 18//10 17//10
f 18//11 14//11 13//11
f 19//12 17//12 13//12
f 16//13 14//13 18//13
o Cylinder
v 0.696434 0.040754 -1.887969
v 0.696434 4.730642 -1.887969
v 0.755926 0.040754 -1.882110
v 0.755926 4.730642 -1.882110
v 0.813131 0.040754 -1.864756
v 0.813131 4.730642 -1.864756
v 0.865852 0.040754 -1.836577
v 0.865852 4.730642 -1.836577
v 0.912062 0.040754 -1.798653
v 0.912062 4.730642 -1.798653
v 0.949986 0.040754 -1.752443
v 0.949986 4.730642 -1.752443
v 0.978166 0.040754 -1.699722
v 0.978166 4.730642 -1.699722
v 0.995519 0.040754 -1.642516
v 0.995519 4.730642 -1.642516
v 1.001378 0.040754 -1.583025
v 1.001378 4.730642 -1.583025
v 0.995519 0.040754 -1.523533
v 0.995519 4.730642 -1.523533
v 0.978166 0.040754 -1.466328
v 0.978166 4.730642 -1.466328
v 0.949986 0.040754 -1.413607
v 0.949986 4.730642 -1.413607
v 0.912062 0.040754 -1.367397
v 0.912062 4.730642 -1.367397
v 0.865852 0.040754 -1.329473
v 0.865852 4.730642 -1.329473
v 0.813131 0.040754 -1.301293
v 0.813131 4.730642 -1.301293
v 0.755926 0.040754 -1.283940
v 0.755926 4.730642 -1.283940
v 0.696434 0.040754 -1.278080
v 0.696434 4.730642 -1.278080
v 0.636942 0.040754 -1.283940
v 0.636942 4.730642 -1.283940
v 0.579737 0.040754 -1.301293
v 0.579737 4.730642 -1.301293
v 0.527016 0.040754 -1.329473
v 0.527016 4.730642 -1.329473
v 0.480806 0.040754 -1.367397
v 0.480806 4.730642 -1.367397
v 0.442882 0.040754 -1.413607
v 0.442882 4.730642 -1.413607
v 0.414702 0.040754 -1.466328
v 0.414702 4.730642 -1.466328
v 0.397349 0.040754 -1.523533
v 0.397349 4.730642 -1.523533
v 0.391490 0.040754 -1.583025
v 0.391490 4.730642 -1.583025
v 0.397349 0.040754 -1.642517
v 0.397349 4.730642 -1.642517
v 0.414703 0.040754 -1.699722
v 0.414703 4.730642 -1.699722
v 0.442882 0.040754 -1.752443
v 0.442882 4.730642 -1.752443
v 0.480806 0.040754 -1.798653
v 0.480806 4.730642 -1.798653
v 0.527017 0.040754 -1.836577
v 0.527017 4.730642 -1.836577
v 0.579737 0.040754 -1.864757
v 0.579737 4.730642 -1.864757
v 0.636943 0.040754 -1.882110
v 0.636943 4.730642 -1.882110
vn 0.0980 0.0000 -0.9952
vn 0.2903 0.0000 -0.9569
vn 0.4714 0.0000 -0.8819
vn 0.6344 0.0000 -0.7730
vn 0.7730 0.0000 -0.6344
vn 0.8819 0.0000 -0.4714
vn 0.9569 0.0000 -0.2903
vn 0.9952 0.0000 -0.0980
vn 0.9952 0.0000 0.0980
vn 0.9569 0.0000 0.2903
vn 0.8819 0.0000 0.4714
vn 0.7730 0.0000 0.6344
vn 0.6344 0.0000 0.7730
vn 0.4714 0.0000 0.8819
vn 0.2903 0.0000 0.9569
vn 0.0980 0.0000 0.9952
vn -0.0980 0.0000 0.9952
vn -0.2903 0.0000 0.9569
vn -0.4714 0.0000 0.8819
vn -0.6344 0.0000 0.7730
vn -0.7730 0.0000 0.6344
vn -0.8819 0.0000 0.4714
vn -0.9569 0.0000 0.2903
vn -0.9952 0.0000 0.0980
vn -0.9952 0.0000 -0.0980
vn -0.9569 0.0000 -0.2903
vn -0.8819 0.0000 -0.4714
vn -0.7730 0.0000 -0.6344
vn -0.6344 0.0000 -0.7730
vn -0.4714 0.0000 -0.8819
vn 0.0000 1.0000 0.0000
vn -0.2903 0.0000 -0.9569
vn -0.0980 0.0000 -0.9952
vn 0.0000 -1.0000 0.0000
vn 0.0000 1.0000 0.0001
vn 0.0000 1.0000 -0.0001
s off
f 22//14 23//14 21//14
f 24//15 25//15 23//15
f 26//16 27//16 25//16
f 28//17 29//17 27//17
f 30//18 31//18 29//18
f 32//19 33//19 31//19
f 34//20 35//20 33//20
f 36//21 37//21 35//21
f 38//22 39//22 37//22
f 40//23 41//23 39//23
f 42//24 43//24 41//24
f 44//25 45//25 43//25
f 46//26 47//26 45//26
f 48//27 49//27 47//27
f 50//28 51//28 49//28
f 52//29 53//29 51//29
f 54//30 55//30 53//30
f 56//31 57//31 55//31
f 58//32 59//32 57//32
f 60//33 61//33 59//33
f 62//34 63//34 61//34
f 64//35 65//35 63//35
f 66//36 67//36 65//36
f 68//37 69//37 67//37
f 70//38 71//38 69//38
f 72//39 73//39 71//39
f 74//40 75//40 73//40
f 76//41 77//41 75//41
f 78//42 79//42 77//42
f 80//43 81//43 79//43
f 74//44 58//44 42//44
f 82//45 83//45 81//45
f 84//46 21//46 83//46
f 35//47 51//47 67//47
f 22//14 24//14 23//14
f 24//15 26//15 25//15
f 26//16 28//16 27//16
f 28//17 30//17 29//17
f 30//18 32//18 31//18
f 32//19 34//19 33//19
f 34//20 36//20 35//20
f 36//21 38//21 37//21
f 38//22 40//22 39//22
f 40//23 42//23 41//23
f 42//24 44//24 43//24
f 44//25 46//25 45//25
f 46//26 48//26 47//26
f 48//27 50//27 49//27
f 50//28 52//28 51//28
f 52//29 54//29 53//29
f 54//30 56//30 55//30
f 56//31 58//31 57//31
f 58//32 60//32 59//32
f 60//33 62//33 61//33
f 62//34 64//34 63//34
f 64//35 66//35 65//35
f 66//36 68//36 67//36
f 68//37 70//37 69//37
f 70//38 72//38 71//38
f 72//39 74//39 73//39
f 74//40 76//40 75//40
f 76//41 78//41 77//41
f 78//42 80//42 79//42
f 80//43 82//43 81//43
f 26//48 24//48 22//48
f 22//44 84//44 26//44
f 84//44 82//44 26//44
f 82//44 80//44 78//44
f 78//44 76//44 74//44
f 74//44 72//44 70//44
f 70//44 68//44 74//44
f 68//44 66//44 74//44
f 66//44 64//44 62//44
f 62//44 60//44 58//44
f 58//49 56//49 54//49
f 54//44 52//44 50//44
f 50//44 48//44 46//44
f 46//44 44//44 42//44
f 42//44 40//44 38//44
f 38//44 36//44 42//44
f 36//44 34//44 42//44
f 34//44 32//44 30//44
f 30//44 28//44 26//44
f 82//44 78//44 26//44
f 78//44 74//44 26//44
f 66//44 62//44 58//44
f 58//44 54//44 42//44
f 54//44 50//44 42//44
f 50//44 46//44 42//44
f 34//44 30//44 42//44
f 30//44 26//44 42//44
f 74//44 66//44 58//44
f 26//44 74//44 42//44
f 82//45 84//45 83//45
f 84//46 22//46 21//46
f 83//47 21//47 23//47
f 23//47 25//47 27//47
f 27//47 29//47 31//47
f 31//47 33//47 27//47
f 33//47 35//47 27//47
f 35//47 37//47 39//47
f 39//47 41//47 35//47
f 41//47 43//47 35//47
f 43//47 45//47 51//47
f 45//47 47//47 51//47
f 47//47 49//47 51//47
f 51//47 53//47 55//47
f 55//47 57//47 59//47
f 59//47 61//47 67//47
f 61//47 63//47 67//47
f 63//47 65//47 67//47
f 67//47 69//47 71//47
f 71//47 73//47 75//47
f 75//47 77//47 79//47
f 79//47 81//47 83//47
f 83//47 23//47 27//47
f 51//47 55//47 67//47
f 55//47 59//47 67//47
f 67//47 71//47 83//47
f 71//47 75//47 83//47
f 75//47 79//47 83//47
f 83//47 27//47 35//47
f 35//47 43//47 51//47
f 83//47 35//47 67//47
