# Blender v2.93.3 OBJ File: ''
# www.blender.org
mtllib gun.mtl
o Cube
v 0.925499 2.544971 -1.469276
v 0.925499 0.693972 -1.469276
v 0.925499 2.544971 -1.333595
v 0.925499 0.693972 -1.333595
v -0.925499 2.544971 -1.469276
v -0.925499 0.693972 -1.469276
v -0.925499 2.544971 -1.333595
v -0.925499 0.693972 -1.333595
v 0.767111 2.386582 -5.436534
v 0.767111 0.852360 -5.436534
v -0.767111 2.386582 -5.436534
v -0.767111 0.852360 -5.436534
v 1.000000 2.619471 0.008602
v 1.000000 0.486440 0.020228
v -1.000000 2.619471 0.008602
v -1.000000 0.486440 0.020228
v 1.023064 2.250592 0.664627
v 0.851832 0.403739 1.756925
v -1.023064 2.250592 0.664627
v -0.851832 0.403739 1.756925
v 0.608505 -2.234895 0.657757
v -0.608505 -2.234895 0.657757
v 0.585648 -1.985499 1.769646
v -0.585648 -1.985499 1.769646
v 0.569384 2.188855 -5.627125
v 0.569384 1.050087 -5.627125
v -0.569384 2.188855 -5.627125
v -0.569384 1.050087 -5.627125
v 0.674663 2.294134 -5.754185
v 0.674663 0.944808 -5.754185
v -0.674663 2.294134 -5.754185
v -0.674663 0.944808 -5.754185
v 0.674663 2.294134 -5.881246
v 0.674663 0.944808 -5.881246
v -0.674663 2.294134 -5.881246
v -0.674663 0.944808 -5.881246
v -0.666802 0.952670 -5.250799
v 0.666802 0.952670 -5.250799
v 0.666802 2.286273 -5.250799
v -0.666802 2.286273 -5.250799
v 0.803287 0.816184 -1.700660
v -0.803287 2.422758 -1.700660
v -0.803287 0.816184 -1.700660
v 0.803287 2.422758 -1.700660
v 0.694609 -1.977661 0.552137
v -0.694609 -1.977661 0.552137
v -0.656937 -1.744550 1.811878
v 0.656937 -1.744550 1.811878
v -0.995280 -0.537425 0.133249
v -0.878600 -0.482627 1.886954
v 0.995280 -0.537425 0.133249
v 0.878600 -0.482627 1.886954
v -0.916619 -0.363038 0.183971
v -0.804348 -0.334007 1.795134
v 0.916619 -0.363038 0.183971
v 0.804348 -0.334007 1.795134
v 0.610200 0.693972 -1.469276
v 0.610200 2.544971 -1.333595
v 0.610200 0.693972 -1.333595
v 0.610200 2.544971 -1.469276
v 0.505771 0.852360 -5.436534
v 0.505771 2.386582 -5.436534
v 0.659320 2.619471 0.008602
v 0.659320 0.486440 0.020228
v 0.674526 2.250592 0.664627
v 0.561630 0.403739 1.756925
v 0.401199 -2.234895 0.657757
v 0.386129 -1.985499 1.769646
v 0.375406 1.050087 -5.627125
v 0.375406 2.188855 -5.627125
v 0.444819 0.944808 -5.754185
v 0.444819 2.294134 -5.754185
v 0.444819 0.944808 -5.881246
v 0.444819 2.294134 -5.881246
v 0.439635 2.286273 -5.250799
v 0.439635 0.952670 -5.250799
v 0.529623 0.816184 -1.700660
v 0.529623 2.422758 -1.700660
v 0.433132 -1.744550 1.811878
v 0.457969 -1.977661 0.552137
v 0.656207 -0.537425 0.133249
v 0.579278 -0.482627 1.886954
v 0.530322 -0.334007 1.795134
v 0.604345 -0.363038 0.183971
v -0.622006 0.693972 -1.469276
v -0.622006 2.544971 -1.333595
v -0.515557 0.852360 -5.436534
v -0.672076 2.619471 0.008602
v -0.687576 2.250592 0.664627
v -0.382669 1.050087 -5.627125
v -0.453425 0.944808 -5.754185
v -0.453425 0.944808 -5.881246
v -0.448141 2.286273 -5.250799
v -0.539870 2.422758 -1.700660
v -0.466830 -1.977661 0.552137
v -0.668903 -0.537425 0.133249
v -0.616038 -0.363038 0.183971
v -0.622006 0.693972 -1.333595
v -0.622006 2.544971 -1.469276
v -0.515557 2.386582 -5.436534
v -0.672076 0.486440 0.020228
v -0.572496 0.403739 1.756925
v -0.408961 -2.234895 0.657757
v -0.393600 -1.985499 1.769646
v -0.382669 2.188855 -5.627125
v -0.453425 2.294134 -5.754185
v -0.453425 2.294134 -5.881246
v -0.448141 0.952670 -5.250799
v -0.539870 0.816184 -1.700660
v -0.441511 -1.744550 1.811878
v -0.590486 -0.482627 1.886954
v -0.540582 -0.334007 1.795134
v 0.604345 -0.011363 -1.025123
v 0.656207 -0.185750 -1.075845
v -0.668903 -0.185750 -1.075845
v -0.616038 -0.011363 -1.025123
v 0.604345 0.015349 -1.068143
v 0.656207 -0.039673 -1.241221
v -0.668903 -0.039673 -1.241221
v -0.616038 0.015349 -1.068143
v 0.604345 0.571448 -1.281165
v 0.656207 0.516427 -1.454243
v -0.668903 0.516427 -1.454243
v -0.616038 0.571448 -1.281165
v 0.990112 0.513983 -0.159448
v -0.990112 0.513983 -0.159448
v -0.990112 2.609584 -0.169531
v 0.990112 2.609584 -0.169531
v 0.652801 2.609584 -0.169531
v 0.652801 0.513983 -0.159448
v -0.665430 0.513983 -0.159448
v -0.665430 2.609584 -0.169531
v -0.978448 0.546476 -0.371414
v 0.978448 2.597919 -0.379677
v 0.978448 0.546476 -0.371414
v -0.978448 2.597919 -0.379677
v 0.645110 2.597919 -0.379676
v 0.645110 0.546476 -0.371414
v -0.657591 0.546476 -0.371414
v -0.657591 2.597919 -0.379677
v 0.645110 0.331985 -0.418955
v 0.652801 0.211097 -0.241836
v -0.657591 0.331985 -0.418955
v -0.665430 0.211097 -0.241836
v 0.645110 0.200534 -0.645008
v 0.652801 0.022657 -0.525237
v -0.657591 0.200534 -0.645008
v -0.665430 0.022657 -0.525237
v 0.645110 0.266340 -0.862921
v 0.652801 0.054005 -0.832936
v -0.657591 0.266340 -0.862921
v -0.665430 0.054005 -0.832936
vt 0.114144 0.805733
vt 0.114144 0.778800
vt 0.125841 0.778011
vt 0.125841 0.805212
vt 0.811530 0.527253
vt 0.837713 0.527253
vt 0.839554 0.572901
vt 0.812767 0.572901
vt 0.810999 0.513148
vt 0.836923 0.513148
vt 0.184952 0.305592
vt 0.034979 0.379545
vt 0.028102 0.367120
vt 0.180706 0.291748
vt 0.359041 0.477641
vt 0.509007 0.551596
vt 0.504762 0.565440
vt 0.352165 0.490066
vt 0.803579 0.739755
vt 0.825882 0.739755
vt 0.449595 0.693204
vt 0.355861 0.550008
vt 0.882832 0.100523
vt 0.863938 0.100523
vt 0.870813 0.079185
vt 0.887365 0.079185
vt 0.031797 0.307177
vt 0.125547 0.163985
vt 0.299547 0.794563
vt 0.299547 0.778011
vt 0.387455 0.779836
vt 0.387455 0.795766
vt 0.600996 0.772514
vt 0.661757 0.690186
vt 0.676184 0.706886
vt 0.619466 0.778011
vt 0.337731 0.167009
vt 0.276970 0.084680
vt 0.295445 0.079185
vt 0.352165 0.150310
vt 0.793121 0.904670
vt 0.810321 0.904670
vt 0.804629 0.922005
vt 0.789295 0.922005
vt 0.659357 0.141056
vt 0.577673 0.101262
vt 0.574970 0.088304
vt 0.671757 0.135457
vt 0.579397 0.079185
vt 0.676184 0.126337
vt 0.621712 0.862432
vt 0.621712 0.877340
vt 0.608827 0.885746
vt 0.608827 0.868082
vt 0.854333 0.835148
vt 0.854333 0.819660
vt 0.865400 0.811254
vt 0.865400 0.829606
vt 0.253658 0.755935
vt 0.335345 0.716142
vt 0.347738 0.721740
vt 0.250947 0.768891
vt 0.210316 0.796362
vt 0.125841 0.796362
vt 0.125841 0.778011
vt 0.210316 0.778011
vt 0.599835 0.885746
vt 0.599835 0.868082
vt 0.876472 0.829606
vt 0.876472 0.811255
vt 0.886423 0.811255
vt 0.886423 0.829606
vt 0.352165 0.730860
vt 0.255374 0.778011
vt 0.805015 0.810374
vt 0.828020 0.810374
vt 0.250195 0.247851
vt 0.184703 0.123719
vt 0.508751 0.733470
vt 0.574247 0.609338
vt 0.867004 0.211447
vt 0.839931 0.211447
vt 0.871145 0.219852
vt 0.846212 0.219852
vt 0.500992 0.721798
vt 0.559656 0.607003
vt 0.235609 0.250187
vt 0.176950 0.135392
vt 0.801031 0.796853
vt 0.822091 0.796853
vt 0.866755 0.281148
vt 0.839554 0.281148
vt 0.689855 0.739755
vt 0.713026 0.739755
vt 0.715526 0.796853
vt 0.693647 0.796853
vt 0.711617 0.810374
vt 0.687718 0.810374
vt 0.723286 0.904670
vt 0.705417 0.904670
vt 0.608827 0.778011
vt 0.608827 0.796363
vt 0.599835 0.796363
vt 0.599835 0.778011
vt 0.621712 0.786417
vt 0.621712 0.801905
vt 0.727039 0.922005
vt 0.711109 0.922005
vt 0.299547 0.859249
vt 0.387455 0.858023
vt 0.956671 0.100523
vt 0.952051 0.079185
vt 0.676184 0.572901
vt 0.704012 0.572901
vt 0.678815 0.513148
vt 0.705747 0.513148
vt 0.705226 0.527253
vt 0.678025 0.527253
vt 0.114144 0.936909
vt 0.114144 0.910985
vt 0.125841 0.911516
vt 0.125841 0.937698
vt 0.974858 0.100523
vt 0.967983 0.079185
vt 0.299547 0.875181
vt 0.387455 0.873357
vt 0.854333 0.910584
vt 0.854333 0.895676
vt 0.865400 0.901325
vt 0.865400 0.918990
vt 0.210316 0.885746
vt 0.125841 0.885746
vt 0.125841 0.868081
vt 0.210316 0.868081
vt 0.876472 0.918990
vt 0.876472 0.901325
vt 0.886423 0.901325
vt 0.886423 0.918990
vt 0.998865 0.211447
vt 0.972806 0.211447
vt 0.992584 0.219852
vt 0.968585 0.219852
vt 0.999242 0.281148
vt 0.973059 0.281148
vt 0.494583 0.778487
vt 0.494583 0.875927
vt 0.491516 0.875927
vt 0.491516 0.778487
vt 0.100344 0.935978
vt 0.100344 0.910359
vt 0.865400 0.915267
vt 0.865400 0.811255
vt 0.876472 0.811255
vt 0.876472 0.915267
vt 0.679746 0.496509
vt 0.706361 0.496509
vt 0.367152 0.462983
vt 0.514014 0.535264
vt 0.189960 0.321924
vt 0.043092 0.394203
vt 0.810373 0.496509
vt 0.835992 0.496509
vt 0.100344 0.806347
vt 0.100344 0.779732
vt 0.037704 0.809134
vt 0.037704 0.783959
vt 0.807532 0.420977
vt 0.831764 0.420977
vt 0.212696 0.396060
vt 0.079918 0.460742
vt 0.403972 0.396446
vt 0.536744 0.461130
vt 0.683973 0.420977
vt 0.709148 0.420977
vt 0.037704 0.907518
vt 0.037704 0.931750
vt 0.494583 0.883263
vt 0.494583 0.778011
vt 0.521605 0.778011
vt 0.521605 0.883263
vt 0.676184 0.829450
vt 0.665543 0.842826
vt 0.647791 0.825171
vt 0.663186 0.817695
vt 0.621711 0.883263
vt 0.621711 0.778011
vt 0.642799 0.778011
vt 0.642799 0.883263
vt 0.665543 0.842826
vt 0.676184 0.856201
vt 0.663186 0.867955
vt 0.647791 0.860481
vt 0.561968 0.882023
vt 0.561968 0.778011
vt 0.578012 0.778011
vt 0.578012 0.882023
vt 0.645924 0.798098
vt 0.663004 0.796845
vt 0.542222 0.882023
vt 0.542222 0.778011
vt 0.663005 0.888804
vt 0.645924 0.887552
vt 0.854333 0.811880
vt 0.854333 0.915893
vt 0.839554 0.916507
vt 0.839554 0.811254
vt 0.676184 0.901311
vt 0.660263 0.907639
vt 0.542222 0.778011
vt 0.542222 0.883263
vt 0.660263 0.778010
vt 0.676184 0.784338
vt 0.807532 0.410351
vt 0.831764 0.410351
vt 0.408699 0.386708
vt 0.541471 0.451391
vt 0.028102 0.809134
vt 0.028102 0.783959
vt 0.217423 0.405799
vt 0.084645 0.470480
vt 0.867910 0.403920
vt 0.850452 0.403920
vt 0.842443 0.387067
vt 0.862528 0.387067
vt 0.717486 0.097183
vt 0.696620 0.097183
vt 0.712407 0.079185
vt 0.727895 0.079185
vt 0.722767 0.110171
vt 0.704629 0.110171
vt 0.233941 0.732474
vt 0.329604 0.685872
vt 0.343665 0.695848
vt 0.233611 0.749460
vt 0.653624 0.171324
vt 0.557965 0.124721
vt 0.557642 0.107734
vt 0.667692 0.161347
vt 0.599835 0.880424
vt 0.599835 0.900509
vt 0.578012 0.884722
vt 0.578012 0.869814
vt 0.540276 0.430697
vt 0.425037 0.374555
vt 0.100994 0.482635
vt 0.216238 0.426494
vt 0.715582 0.390331
vt 0.693731 0.390331
vt 0.860586 0.650114
vt 0.839554 0.650114
vt 0.969061 0.367950
vt 0.993293 0.367950
vt 0.983535 0.387067
vt 0.962503 0.387067
vt 0.709148 0.410351
vt 0.683973 0.410351
vt 0.433467 0.934557
vt 0.419531 0.939152
vt 0.387455 0.843905
vt 0.401391 0.839310
vt 0.800974 0.390331
vt 0.845502 0.367950
vt 0.870677 0.367950
vt 0.877111 0.387067
vt 0.855260 0.387067
vt 0.967829 0.650114
vt 0.945979 0.650114
vt 0.938794 0.403920
vt 0.956931 0.403920
vt 0.793650 0.110171
vt 0.599835 0.778011
vt 0.599835 0.798877
vt 0.578012 0.809286
vt 0.578012 0.793798
vt 0.799033 0.097183
vt 0.788423 0.079185
vt 0.944074 0.387067
vt 0.964940 0.387067
vt 0.867004 0.356090
vt 0.972806 0.356090
vt 0.028102 0.931750
vt 0.028102 0.907518
vt 0.819118 0.097183
vt 0.803331 0.079185
vt 0.811109 0.110171
vt 0.822006 0.390331
vt 0.972806 0.293379
vt 0.867004 0.293379
vt 0.871629 0.650115
vt 0.885572 0.654709
vt 0.853498 0.749955
vt 0.839554 0.745361
vt 0.299547 0.778011
vt 0.299547 0.875451
vt 0.210317 0.875451
vt 0.210317 0.778011
vt 0.841578 0.762862
vt 0.853286 0.753993
vt 0.879969 0.793335
vt 0.868261 0.802204
vt 0.389479 0.826404
vt 0.401178 0.835273
vt 0.972806 0.310719
vt 0.867004 0.310719
vt 0.427863 0.795931
vt 0.416163 0.787062
vt 0.427285 0.778011
vt 0.433467 0.786897
vt 0.444056 0.875927
vt 0.444056 0.778487
vt 0.885572 0.802368
vt 0.879391 0.811255
vt 0.433467 0.876395
vt 0.433467 0.778011
vn 0.0000 -0.9885 -0.1515
vn 0.0000 0.8717 0.4901
vn 0.0000 0.9985 -0.0554
vn 0.9985 -0.0003 -0.0552
vn -0.9985 -0.0003 -0.0552
vn 0.0000 0.5091 0.8607
vn -0.9985 -0.0301 0.0465
vn 0.0000 -0.3798 -0.9251
vn 0.9985 -0.0301 0.0465
vn 0.0000 -0.9758 0.2189
vn -0.9532 -0.2905 0.0834
vn 0.9532 -0.2905 0.0834
vn 0.0000 -0.1726 0.9850
vn -0.7700 0.0000 0.6380
vn -1.0000 0.0000 0.0000
vn 0.0000 -0.7700 0.6380
vn 0.0000 0.7700 0.6380
vn 0.7700 0.0000 0.6380
vn 0.0000 0.0000 -1.0000
vn 0.0000 -1.0000 0.0000
vn 0.0000 1.0000 0.0000
vn 1.0000 0.0000 0.0000
vn 0.0000 -0.0594 0.9982
vn 0.9811 -0.1811 0.0676
vn -0.9811 -0.1811 0.0676
vn 0.0000 -0.2793 -0.9602
vn 0.0000 0.2793 -0.9602
vn -0.9002 0.4326 0.0505
vn 0.9002 0.4326 0.0505
vn 0.0000 0.5256 0.8507
vn 0.0000 0.0517 0.9987
vn 0.9945 -0.0723 0.0762
vn -0.9945 -0.0723 0.0762
vn 0.0000 -0.1893 -0.9819
vn 0.0000 0.8495 0.5275
vn 0.0000 0.2164 -0.9763
vn -0.9985 -0.0002 -0.0552
vn 0.9985 -0.0002 -0.0552
vn 0.9985 -0.0001 -0.0552
vn -0.9985 -0.0001 -0.0552
vn 0.0000 -0.8327 0.5537
vn 0.9993 0.0090 -0.0359
vn 0.0000 -0.2625 0.9649
vn -0.9993 0.0092 -0.0366
vn 0.0000 0.9573 0.2891
vn 0.9993 0.0317 -0.0199
vn 0.0000 0.8645 -0.5027
vn -0.9993 0.0323 -0.0203
vn 0.0000 -0.1398 -0.9902
vn -0.9990 0.0432 0.0080
vn 0.0000 -0.9949 -0.1014
vn 0.9991 0.0424 0.0078
vn 0.0000 -0.8799 0.4752
vn 0.0000 0.6940 -0.7200
vn 0.0000 0.8799 0.4752
vn 0.8799 0.0000 0.4752
vn -0.8799 0.0000 0.4752
vn 0.6940 0.0000 -0.7200
vn -0.6940 0.0000 -0.7200
vn 0.0000 -0.6940 -0.7200
vn -0.9993 0.0000 -0.0384
vn 0.9993 0.0000 -0.0384
vn 0.0000 0.9993 -0.0384
vn 0.0000 -0.9993 -0.0384
vn 0.0000 -0.8842 -0.4670
vn 0.0000 0.8842 -0.4670
vn 0.8842 0.0000 -0.4670
vn -0.8842 0.0000 -0.4670
vn 0.9616 0.2637 0.0767
vn 0.0000 -0.0844 -0.9964
vn 0.0000 -0.9602 -0.2793
vn -0.9601 0.2684 0.0781
vn 0.0000 0.9602 0.2793
vn -0.9600 0.1001 0.2614
vn 0.9511 0.2377 0.1971
vn -0.9494 0.2419 0.2006
vn 0.0000 -0.7495 -0.6620
vn 0.9776 0.1613 0.1355
vn 0.0000 -0.3577 -0.9338
vn 0.0000 0.3577 0.9338
vn 0.9614 0.0984 0.2568
vn -0.9767 0.1642 0.1380
vn 0.0000 0.3934 0.9194
usemtl Material
s off
f 130/1/1 125/2/1 14/3/1 64/4/1
f 88/5/2 15/6/2 19/7/2 89/8/2
f 132/9/3 127/10/3 15/6/3 88/5/3
f 125/11/4 128/12/4 13/13/4 14/14/4
f 127/15/5 126/16/5 16/17/5 15/18/5
f 102/19/6 89/8/6 19/7/6 20/20/6
f 15/18/7 16/17/7 20/21/7 19/22/7
f 80/23/8 45/24/8 21/25/8 67/26/8
f 14/14/9 13/13/9 17/27/9 18/28/9
f 67/29/10 21/30/10 23/31/10 68/32/10
f 47/33/11 46/34/11 22/35/11 24/36/11
f 45/37/12 48/38/12 23/39/12 21/40/12
f 110/41/13 47/42/13 24/43/13 104/44/13
f 28/45/14 27/46/14 31/47/14 32/48/14
f 32/48/15 31/47/15 35/49/15 36/50/15
f 90/51/16 28/52/16 32/53/16 91/54/16
f 70/55/17 25/56/17 29/57/17 72/58/17
f 25/59/18 26/60/18 30/61/18 29/62/18
f 73/63/19 74/64/19 33/65/19 34/66/19
f 91/54/20 32/53/20 36/67/20 92/68/20
f 72/69/21 29/70/21 33/71/21 74/72/21
f 29/62/22 30/61/22 34/73/22 33/74/22
f 111/75/23 50/76/23 47/42/23 110/41/23
f 51/77/24 52/78/24 48/38/24 45/37/24
f 50/79/25 49/80/25 46/34/25 47/33/25
f 81/81/26 51/82/26 45/24/26 80/23/26
f 84/83/27 55/84/27 51/82/27 81/81/27
f 54/85/28 53/86/28 49/80/28 50/79/28
f 55/87/29 56/88/29 52/78/29 51/77/29
f 112/89/30 54/90/30 50/76/30 111/75/30
f 102/19/31 20/20/31 54/90/31 112/89/31
f 14/14/32 18/28/32 56/88/32 55/87/32
f 20/21/33 16/17/33 53/86/33 54/85/33
f 64/91/34 14/92/34 55/84/34 84/83/34
f 18/93/31 66/94/31 83/95/31 56/96/31
f 56/96/30 83/95/30 82/97/30 52/98/30
f 52/98/23 82/97/23 79/99/23 48/100/23
f 30/101/20 71/102/20 73/103/20 34/104/20
f 26/105/16 69/106/16 71/102/16 30/101/16
f 48/100/13 79/99/13 68/107/13 23/108/13
f 103/109/10 67/29/10 68/32/10 104/110/10
f 95/111/8 80/23/8 67/26/8 103/112/8
f 18/93/6 17/113/6 65/114/6 66/94/6
f 128/115/3 129/116/3 63/117/3 13/118/3
f 13/118/2 63/117/2 65/114/2 17/113/2
f 126/119/1 131/120/1 101/121/1 16/122/1
f 46/123/8 95/111/8 103/112/8 22/124/8
f 22/125/10 103/109/10 104/110/10 24/126/10
f 27/127/17 105/128/17 106/129/17 31/130/17
f 36/131/19 35/132/19 107/133/19 92/134/19
f 31/135/21 106/136/21 107/137/21 35/138/21
f 49/139/26 96/140/26 95/111/26 46/123/26
f 53/141/27 97/142/27 96/140/27 49/139/27
f 16/143/34 101/144/34 97/142/34 53/141/34
f 83/95/30 112/89/30 111/75/30 82/97/30
f 79/99/13 110/41/13 104/44/13 68/107/13
f 116/145/35 113/146/35 117/147/35 120/148/35
f 133/149/1 139/150/1 131/120/1 126/119/1
f 139/151/36 138/152/36 141/153/36 143/154/36
f 134/155/3 137/156/3 129/116/3 128/115/3
f 136/157/37 133/158/37 126/16/37 127/15/37
f 135/159/38 134/160/38 128/12/38 125/11/38
f 140/161/3 136/162/3 127/10/3 132/9/3
f 138/163/1 135/164/1 125/2/1 130/1/1
f 59/165/1 4/166/1 135/164/1 138/163/1
f 86/167/3 7/168/3 136/162/3 140/161/3
f 4/169/39 3/170/39 134/160/39 135/159/39
f 7/171/40 8/172/40 133/158/40 136/157/40
f 3/173/3 58/174/3 137/156/3 134/155/3
f 98/175/1 59/165/1 138/163/1 139/150/1
f 8/176/1 98/175/1 139/150/1 133/149/1
f 58/174/3 86/167/3 140/161/3 137/156/3
f 142/177/41 144/178/41 148/179/41 146/180/41
f 138/181/42 130/182/42 142/183/42 141/184/42
f 130/185/43 131/186/43 144/187/43 142/188/43
f 131/189/44 139/190/44 143/191/44 144/192/44
f 147/193/45 145/194/45 149/195/45 151/196/45
f 141/184/46 142/183/46 146/197/46 145/198/46
f 143/199/47 141/200/47 145/194/47 147/193/47
f 144/192/48 143/191/48 147/201/48 148/202/48
f 151/203/49 149/204/49 150/205/49 152/206/49
f 148/202/50 147/201/50 151/207/50 152/208/50
f 146/180/51 148/179/51 152/209/51 150/210/51
f 145/198/52 146/197/52 150/211/52 149/212/52
usemtl Material.001
f 99/213/21 5/214/21 7/168/21 86/167/21
f 8/172/15 7/171/15 5/215/15 6/216/15
f 57/217/20 2/218/20 4/166/20 59/165/20
f 2/219/22 1/220/22 3/170/22 4/169/22
f 108/221/53 37/222/53 12/223/53 87/224/53
f 62/225/54 9/226/54 25/227/54 70/228/54
f 75/229/55 39/230/55 9/226/55 62/225/55
f 39/231/56 38/232/56 10/233/56 9/234/56
f 37/235/57 40/236/57 11/237/57 12/238/57
f 9/234/58 10/233/58 26/60/58 25/59/58
f 12/238/59 11/237/59 27/46/59 28/45/59
f 87/239/60 12/240/60 28/241/60 90/242/60
f 43/243/61 42/244/61 40/236/61 37/235/61
f 44/245/62 41/246/62 38/232/62 39/231/62
f 78/247/63 44/248/63 39/230/63 75/229/63
f 109/249/64 43/250/64 37/222/64 108/221/64
f 85/251/65 6/252/65 43/253/65 109/254/65
f 60/255/66 1/256/66 44/248/66 78/247/66
f 1/220/67 2/219/67 41/246/67 44/245/67
f 6/216/68 5/215/68 42/244/68 43/243/68
f 101/144/34 64/91/34 84/83/34 97/142/34
f 84/257/69 81/258/69 114/259/69 113/260/69
f 96/140/26 81/81/26 80/23/26 95/111/26
f 99/213/66 60/255/66 78/247/66 94/261/66
f 2/262/65 57/263/65 77/264/65 41/265/65
f 41/266/64 77/267/64 76/268/64 38/269/64
f 94/261/63 78/247/63 75/229/63 93/270/63
f 106/136/21 72/69/21 74/72/21 107/137/21
f 92/134/19 107/133/19 74/64/19 73/63/19
f 105/128/17 70/55/17 72/58/17 106/129/17
f 10/271/60 61/272/60 69/273/60 26/274/60
f 93/270/55 75/229/55 62/225/55 100/275/55
f 100/275/54 62/225/54 70/228/54 105/276/54
f 38/269/53 76/268/53 61/277/53 10/278/53
f 122/279/70 123/280/70 85/251/70 57/263/70
f 131/120/1 130/1/1 64/4/1 101/121/1
f 1/256/21 60/255/21 58/174/21 3/173/21
f 6/281/20 85/282/20 98/175/20 8/176/20
f 11/283/54 100/275/54 105/276/54 27/284/54
f 40/285/55 93/270/55 100/275/55 11/283/55
f 42/286/63 94/261/63 93/270/63 40/285/63
f 5/214/66 99/213/66 94/261/66 42/286/66
f 66/94/31 102/19/31 112/89/31 83/95/31
f 82/97/23 111/75/23 110/41/23 79/99/23
f 57/263/65 85/251/65 109/254/65 77/264/65
f 77/267/64 109/249/64 108/221/64 76/268/64
f 71/102/20 91/54/20 92/68/20 73/103/20
f 69/106/16 90/51/16 91/54/16 71/102/16
f 61/272/60 87/239/60 90/242/60 69/273/60
f 66/94/6 65/114/6 89/8/6 102/19/6
f 129/116/3 132/9/3 88/5/3 63/117/3
f 63/117/2 88/5/2 89/8/2 65/114/2
f 76/268/53 108/221/53 87/224/53 61/277/53
f 60/255/21 99/213/21 86/167/21 58/174/21
f 81/81/71 96/140/71 115/287/71 114/288/71
f 96/289/72 97/290/72 116/291/72 115/292/72
f 97/293/73 84/294/73 113/295/73 116/296/73
f 119/297/74 120/298/74 124/299/74 123/300/74
f 113/260/75 114/259/75 118/301/75 117/302/75
f 115/292/76 116/291/76 120/298/76 119/297/76
f 114/288/77 115/287/77 119/303/77 118/304/77
f 121/305/78 122/306/78 57/307/78 59/308/78
f 118/304/79 119/303/79 123/280/79 122/279/79
f 120/148/80 117/147/80 121/309/80 124/310/80
f 117/302/81 118/301/81 122/306/81 121/305/81
f 123/300/82 124/299/82 98/311/82 85/312/82
f 124/310/83 121/309/83 59/313/83 98/314/83
f 137/156/3 140/161/3 132/9/3 129/116/3
