# Blender v2.92.0 OBJ File: ''
# www.blender.org
mtllib move_scene.mtl
o Cube.002_Cube.003
v 19.700001 40.000000 20.000000
v 20.300001 40.000000 20.000000
v 19.700001 40.000000 -20.000000
v 20.300001 40.000000 -20.000000
v 19.699999 0.000000 20.000000
v 20.299999 0.000000 20.000000
v 19.699999 0.000000 -20.000000
v 20.299999 0.000000 -20.000000
v 19.699999 13.233150 -20.000000
v 20.299999 13.233150 -20.000000
v 19.699999 13.233150 20.000000
v 20.299999 13.233150 20.000000
v 19.700001 40.000000 0.000000
v 20.300001 40.000000 0.000000
v 19.699999 0.000000 0.000000
v 20.299999 0.000000 0.000000
v 20.299999 13.233150 0.000000
v 19.699999 13.233150 0.000000
v 20.300001 40.000000 -10.000000
v 19.699999 0.000000 -10.000000
v 19.700001 40.000000 -10.000000
v 20.299999 0.000000 -10.000000
v 20.299999 13.233150 -10.000000
v 19.699999 13.233150 -10.000000
v 19.700001 40.000000 10.000000
v 20.299999 0.000000 10.000000
v 20.299999 13.233150 10.000000
v 19.699999 13.233150 10.000000
v 20.300001 40.000000 10.000000
v 19.699999 0.000000 10.000000
vt 0.375000 0.187500
vt 0.625000 0.187500
vt 0.625000 0.250000
vt 0.375000 0.250000
vt 0.375000 0.417293
vt 0.625000 0.417293
vt 0.625000 0.500000
vt 0.375000 0.500000
vt 0.375000 0.687500
vt 0.625000 0.687500
vt 0.625000 0.750000
vt 0.375000 0.750000
vt 0.375000 0.832707
vt 0.625000 0.832707
vt 0.625000 1.000000
vt 0.375000 1.000000
vt 0.292293 0.687500
vt 0.292293 0.750000
vt 0.707707 0.687500
vt 0.875000 0.687500
vt 0.875000 0.750000
vt 0.707707 0.750000
vt 0.125000 0.687500
vt 0.125000 0.750000
vt 0.125000 0.562500
vt 0.292293 0.562500
vt 0.292293 0.625000
vt 0.125000 0.625000
vt 0.707707 0.562500
vt 0.875000 0.562500
vt 0.875000 0.625000
vt 0.707707 0.625000
vt 0.375000 0.562500
vt 0.625000 0.562500
vt 0.625000 0.625000
vt 0.375000 0.625000
vt 0.375000 0.062500
vt 0.625000 0.062500
vt 0.625000 0.125000
vt 0.375000 0.125000
vt 0.292293 0.500000
vt 0.707707 0.500000
vt 0.875000 0.500000
vt 0.125000 0.500000
vt 0.375000 0.000000
vt 0.625000 0.000000
vt 0.000000 0.000000
vt 0.000000 0.000000
vt 0.000000 0.000000
vt 0.000000 0.000000
vt 0.000000 0.000000
vt 0.000000 0.000000
vt 0.000000 0.000000
vt 0.000000 0.000000
vn 0.0000 1.0000 0.0000
vn 0.0000 0.0000 -1.0000
vn 0.0000 -1.0000 0.0000
vn 0.0000 0.0000 1.0000
vn -1.0000 0.0000 0.0000
vn 1.0000 -0.0000 0.0000
usemtl Material.001
s off
f 21/1/1 19/2/1 4/3/1 3/4/1
f 9/5/2 10/6/2 8/7/2 7/8/2
f 30/9/3 26/10/3 6/11/3 5/12/3
f 11/13/4 12/14/4 2/15/4 1/16/4
f 28/17/5 30/9/5 5/12/5 11/18/5
f 27/19/6 29/20/6 2/21/6 12/22/6
f 26/10/6 27/19/6 12/22/6 6/11/6
f 25/23/5 28/17/5 11/18/5 1/24/5
f 5/12/4 6/11/4 12/14/4 11/13/4
f 3/4/2 4/3/2 10/6/2 9/5/2
f 21/25/5 24/26/5 18/27/5 13/28/5
f 23/29/6 19/30/6 14/31/6 17/32/6
f 20/33/3 22/34/3 16/35/3 15/36/3
f 25/37/1 29/38/1 14/39/1 13/40/1
f 7/8/3 8/7/3 22/34/3 20/33/3
f 9/41/5 7/8/5 20/33/5 24/26/5
f 10/42/6 4/43/6 19/30/6 23/29/6
f 8/7/6 10/42/6 23/29/6 22/34/6
f 3/44/5 9/41/5 24/26/5 21/25/5
f 13/40/1 14/39/1 19/2/1 21/1/1
f 1/45/1 2/46/1 29/38/1 25/37/1
f 13/28/5 18/27/5 28/17/5 25/23/5
f 17/32/6 14/31/6 29/20/6 27/19/6
f 15/36/3 16/35/3 26/10/3 30/9/3
f 17/32/3 27/19/3 28/17/3 18/27/3 24/26/3 23/29/3
f 28/47/2 27/48/2 26/49/2 30/50/2
f 22/51/4 23/52/4 24/53/4 20/54/4
o Cube.001_Cube.004
v -19.570000 -0.300000 40.000000
v -19.570000 0.300000 40.000000
v -19.570000 -0.300000 -40.000000
v -19.570000 0.300000 -40.000000
v 60.430000 -0.300000 40.000000
v 60.430000 0.300000 40.000000
v 60.430000 -0.300000 -40.000000
v 60.430000 0.300000 -40.000000
vt 0.375000 0.000000
vt 0.625000 0.000000
vt 0.625000 0.250000
vt 0.375000 0.250000
vt 0.625000 0.500000
vt 0.375000 0.500000
vt 0.625000 0.750000
vt 0.375000 0.750000
vt 0.625000 1.000000
vt 0.375000 1.000000
vt 0.125000 0.500000
vt 0.125000 0.750000
vt 0.875000 0.500000
vt 0.875000 0.750000
vn -1.0000 0.0000 0.0000
vn 0.0000 0.0000 -1.0000
vn 1.0000 0.0000 0.0000
vn 0.0000 0.0000 1.0000
vn 0.0000 -1.0000 0.0000
vn 0.0000 1.0000 0.0000
usemtl Material.001
s off
f 31/55/7 32/56/7 34/57/7 33/58/7
f 33/58/8 34/57/8 38/59/8 37/60/8
f 37/60/9 38/59/9 36/61/9 35/62/9
f 35/62/10 36/61/10 32/63/10 31/64/10
f 33/65/11 37/60/11 35/62/11 31/66/11
f 38/59/12 34/67/12 32/68/12 36/61/12
o Cube.006_Cube.008
v -1.373983 0.000000 -12.536226
v -1.373983 6.000000 -12.536226
v -1.373983 0.000000 -14.536226
v -1.373983 6.000000 -14.536226
v 0.626017 0.000000 -12.536226
v 0.626017 6.000000 -12.536226
v 0.626017 0.000000 -14.536226
v 0.626017 6.000000 -14.536226
vt 0.375000 0.000000
vt 0.625000 0.000000
vt 0.625000 0.250000
vt 0.375000 0.250000
vt 0.625000 0.500000
vt 0.375000 0.500000
vt 0.625000 0.750000
vt 0.375000 0.750000
vt 0.625000 1.000000
vt 0.375000 1.000000
vt 0.125000 0.500000
vt 0.125000 0.750000
vt 0.875000 0.500000
vt 0.875000 0.750000
vn -1.0000 0.0000 0.0000
vn 0.0000 0.0000 -1.0000
vn 1.0000 0.0000 0.0000
vn 0.0000 0.0000 1.0000
vn 0.0000 -1.0000 0.0000
vn 0.0000 1.0000 0.0000
usemtl Material.001
s off
f 39/69/13 40/70/13 42/71/13 41/72/13
f 41/72/14 42/71/14 46/73/14 45/74/14
f 45/74/15 46/73/15 44/75/15 43/76/15
f 43/76/16 44/75/16 40/77/16 39/78/16
f 41/79/17 45/74/17 43/76/17 39/80/17
f 46/73/18 42/81/18 40/82/18 44/75/18
o Cube.003_Cube.010
v -1.373983 0.300001 -16.536226
v -1.373983 2.300001 -16.536226
v -1.373983 0.300001 -18.536226
v -1.373983 2.300001 -18.536226
v 0.626017 0.300001 -16.536226
v 0.626017 2.300001 -16.536226
v 0.626017 0.300001 -18.536226
v 0.626017 2.300001 -18.536226
vt 0.375000 0.000000
vt 0.625000 0.000000
vt 0.625000 0.250000
vt 0.375000 0.250000
vt 0.625000 0.500000
vt 0.375000 0.500000
vt 0.625000 0.750000
vt 0.375000 0.750000
vt 0.625000 1.000000
vt 0.375000 1.000000
vt 0.125000 0.500000
vt 0.125000 0.750000
vt 0.875000 0.500000
vt 0.875000 0.750000
vn -1.0000 0.0000 0.0000
vn 0.0000 0.0000 -1.0000
vn 1.0000 0.0000 0.0000
vn 0.0000 0.0000 1.0000
vn 0.0000 -1.0000 0.0000
vn 0.0000 1.0000 0.0000
usemtl Material.001
s off
f 47/83/19 48/84/19 50/85/19 49/86/19
f 49/86/20 50/85/20 54/87/20 53/88/20
f 53/88/21 54/87/21 52/89/21 51/90/21
f 51/90/22 52/89/22 48/91/22 47/92/22
f 49/93/23 53/88/23 51/90/23 47/94/23
f 54/87/24 50/95/24 48/96/24 52/89/24
